PathFileType	4	(X/Y/Z)	70_1_2_p0_0-227.trc
DataRate	CameraRate	NumFrames	NumMarkers	Units	OrigDataRate	OrigDataStartFrame	OrigNumFrames
60.0	60.0	5	27	m	60.0	57	228
Frame#	Time	RHip			RKnee			RAnkle			RBigToe			RSmallToe			RHeel			LHip			LKnee			LAnkle			LBigToe			LSmallToe			LHeel			Neck			Head			Nose			RShoulder			RElbow			RWrist			RThumb			RIndex			RPinky			LShoulder			LElbow			LWrist			LThumb			LIndex			LPinky			
		X1	Y1	Z1	X2	Y2	Z2	X3	Y3	Z3	X4	Y4	Z4	X5	Y5	Z5	X6	Y6	Z6	X7	Y7	Z7	X8	Y8	Z8	X9	Y9	Z9	X10	Y10	Z10	X11	Y11	Z11	X12	Y12	Z12	X13	Y13	Z13	X14	Y14	Z14	X15	Y15	Z15	X16	Y16	Z16	X17	Y17	Z17	X18	Y18	Z18	X19	Y19	Z19	X20	Y20	Z20	X21	Y21	Z21	X22	Y22	Z22	X23	Y23	Z23	X24	Y24	Z24	X25	Y25	Z25	X26	Y26	Z26	X27	Y27	Z27	
57	0.95	0.3710873888909817	0.5059546902225259	0.09518419649890268	0.36323467112647123	0.6841892756962734	0.49351260273295405	0.361623727362018	0.8136036078996631	0.9040521959188631	0.3186766845819389	0.6380822105827191	0.9982359243999426	0.38852427634435976	0.6601256279908257	0.9881486243185574	0.3474338918832884	0.9207848645785077	0.9892012998984064	0.12637664922573089	0.5925945339564083	0.08122738744141195	0.16297181988620776	0.6828732355504399	0.4896853927321615	0.16820241861906424	0.8255015254613076	0.8992721099111199	0.16814776161613165	0.6574878809323368	0.9985328923197443	0.11341697247599346	0.7018818504954807	0.9747565526647257	0.19032216834465632	0.8815049903071606	0.9423544132928869	0.23892211488753878	0.41858571914285464	-0.5608398097948297	0.22536909440339947	0.3093465842947792	-0.8111270839691154	0.21274138067622386	0.27019016822152364	-0.6606226939872208	0.4271528908283655	0.45430118038910444	-0.47181818517261326	0.48816136204637633	0.44211675863722055	-0.16974005289673838	0.46611726764397904	0.45225527038656105	0.12035736065129442	0.40411930581726696	0.4910172398118197	0.25335846521887073	0.4189531609487904	0.4652488258771171	0.27327631448382306	0.4635290325647503	0.45593961435789476	0.26131754350048253	0.07299939816016662	0.4993648309786601	-0.4648727884315201	0.013777206277843247	0.576650101003565	-0.17537101508777664	0.012478765451965813	0.5655111935039171	0.12038304464816764	0.055498880372680116	0.5205792930761273	0.2236226632810459	0.037461046805993485	0.5123401354018903	0.24111706957697676	0.00035463885603517076	0.5879687343026471	0.2413512056242563
58	0.9666666666666667	0.3710419076357542	0.5056268200138296	0.09518721525490013	0.36314130342672835	0.6839617572788581	0.4934284470907944	0.3615869673391058	0.8135405898018366	0.9040053073766438	0.32016381001700783	0.6401234883164157	1.0034668423097972	0.3885044062259007	0.6602213263439313	0.9881978055090259	0.34749948436220307	0.9209413324060022	0.9891819109594573	0.12659571888559581	0.592230599399602	0.08495646831550233	0.16282444645797114	0.68229959494929	0.48983019771265296	0.16819874094381587	0.8256355037621976	0.8993297926801322	0.16810193538802606	0.6575462931049252	0.9985035644218757	0.11346144675749721	0.7021600974633266	0.9747409440113356	0.1895786821637819	0.8835165751274573	0.9480550409306469	0.2389617109086616	0.4185711692249345	-0.5609329821327574	0.22535376518275854	0.30932767663746724	-0.8112109236114724	0.2128125330565602	0.2702343019301312	-0.6606373564723892	0.42864639478425925	0.44034847274063865	-0.47030808000982915	0.4881749992421839	0.44215306486250106	-0.16975780390121883	0.46608994161818973	0.4521536371873791	0.12032028146661704	0.40284045535581	0.4891443094085576	0.24883567642271084	0.41375934291531313	0.46298377397428203	0.26889923468313726	0.45828261327584047	0.4434808784624295	0.2636363472533298	0.07308858218799522	0.4993502651562827	-0.4649143049850667	0.013814541430981347	0.5766067645191081	-0.17547151883168563	0.01609487128068163	0.5512888903365856	0.11921148718801776	0.05959046407730904	0.5292373456434407	0.21712842871811025	0.037682308688577276	0.5122811598083618	0.24103883948482155	0.007453784055394053	0.5857888986726233	0.24126385114432192
59	0.9833333333333333	0.37107166749366116	0.5056693667569945	0.09524103845692054	0.3631370575425453	0.6839185403562983	0.49332120104700494	0.36299280152066943	0.8161694727761648	0.9092160675469715	0.31387374046144884	0.6263481431212315	0.9988090133383103	0.3821503543117792	0.6462610848211854	0.9837824730721721	0.3483783287884516	0.9193520665409055	0.9838502633812027	0.12720896737160353	0.5943069483000528	0.08561919623413565	0.1628861422509928	0.68268483678165	0.48986135922716467	0.16822622859924624	0.8255997839442868	0.8992227458696095	0.16811368955476763	0.6575892147296477	0.9984519829820524	0.11038129681893866	0.7178259533486332	0.9801311940740653	0.19050365757121368	0.8820375567058701	0.9423022391750776	0.23898410056054636	0.4186168755762184	-0.5609705222203365	0.22535113228241208	0.3093565944169865	-0.8112747112096279	0.2127061637644415	0.26986175931715617	-0.6639647639945074	0.4286255491150723	0.44036073346704896	-0.4703057048927424	0.4882247863105136	0.4421021164623702	-0.16970096147125735	0.46629235800041474	0.4509046664514632	0.11645031382236187	0.3974069106527288	0.47596268596102814	0.24028056923890173	0.4146290290621508	0.46417195869614936	0.27317468819399876	0.4581441124390969	0.44307112434451695	0.2634818390638918	0.07306188732364322	0.4993117904684701	-0.4649089648473579	0.013977932557313145	0.5766787391979659	-0.17146501423915209	0.016156654743773372	0.5510124362129394	0.11936834413605968	0.06407930176597373	0.5333973653816991	0.2248754709670291	0.037879597606701024	0.5120576502819801	0.24120018771534132	0.007829148239564269	0.5855257274622259	0.2415470103460542
60	1.0	0.37140990943025026	0.5084982640440793	0.09926154150234988	0.35885358966391284	0.6836171520918948	0.4897847608528241	0.36296127946913675	0.8159461501472902	0.9091595744539541	0.3099204807933591	0.6255247371137023	0.9982813135266315	0.3780781111580604	0.6448275302735555	0.9865888937409264	0.3484539700506554	0.9193749594714345	0.9837023558308785	0.12717960530988745	0.5943771727561833	0.08560169795210334	0.16011650750560527	0.7015473605028867	0.5021562622873066	0.16822269376027224	0.825592626536696	0.8992391351127554	0.16810784718163854	0.6576177643579454	0.9985667132158415	0.11354975459475147	0.702401124010738	0.9747880844980222	0.19057813016970984	0.8827482236392714	0.9421888412437184	0.23899588423297402	0.4185626845089502	-0.5611269553801869	0.22515242188633633	0.308936853161409	-0.8143707268547056	0.21266626368788966	0.26987834481028883	-0.6640671735668767	0.4285925566670846	0.44004788099259834	-0.47039987619078766	0.48870118602054685	0.4434165475614325	-0.16243704074872084	0.46067446256308275	0.4391262475581738	0.11546899168801443	0.3983698563121003	0.47733993351117227	0.24419088217639165	0.416513123161384	0.4493751551886364	0.2711100308559565	0.4537666705853025	0.442456194497622	0.26357661524010434	0.07304452343016486	0.4992275589204012	-0.4648378483208933	0.013837447754032525	0.5765973997512548	-0.17523974120197355	0.01622745007882519	0.5510224332531545	0.11927359680417976	0.06429655723155858	0.5323269841344909	0.217386757066666	0.03784883555628662	0.5118009267783613	0.24102939665300294	0.008040986060871985	0.5850743955355862	0.24152694080455755
61	1.0166666666666666	0.3703399433026091	0.5066466806865556	0.09531053198908512	0.36300872258069133	0.6846577445242022	0.48978100496509125	0.3615651976066339	0.8132859822847185	0.9039099513940189	0.3137319236331481	0.626743675714608	0.9988411024478436	0.3781427016794805	0.6446081578952252	0.9867022756877399	0.3474778516161606	0.9207905507864675	0.9891312824372032	0.12713073437887804	0.5944500641971228	0.08530633444056719	0.16077117985179404	0.7010258787636489	0.49835594763017493	0.1668960620167949	0.8229801747027001	0.8938276538905122	0.1725194437742304	0.6715782277455213	1.0035530074480936	0.11043700324511806	0.7178979682651216	0.9801919421740348	0.18958109022168873	0.8836235265487085	0.9478272644011856	0.23901988008788425	0.4185695771934302	-0.5609668084788807	0.2251560910920137	0.3089662029555888	-0.8142867804742763	0.217112379071767	0.27993155083926025	-0.6662102087342492	0.4285459503852889	0.4400759893204586	-0.4704470217013535	0.4886084970726701	0.4432101241732165	-0.1623570304010681	0.46066862763280936	0.4391263849633982	0.11548997822586514	0.39718132182614957	0.4753164979682731	0.2400508026618318	0.41132610318765195	0.4469714797878877	0.2669515753863024	0.4532978375001043	0.4425901211827088	0.25950964275631594	0.07311664059985687	0.49906484515088934	-0.46512223340503883	0.013516663052625414	0.574921499165596	-0.17536458751658146	0.019705665084626383	0.5364689672835676	0.11817618668874007	0.06489770762264421	0.5320120012435248	0.2206503907606595	0.04082031665553001	0.4980010829087845	0.23963952767646463	0.00822472588547338	0.583920347555533	0.24154336962960268
